<?xml version="1.0" standalone="no"?>
<!DOCTYPE svg PUBLIC "-//W3C//DTD SVG 20010904//EN"
 "http://www.w3.org/TR/2001/REC-SVG-20010904/DTD/svg10.dtd">
<svg version="1.0" xmlns="http://www.w3.org/2000/svg"
 width="400.000000pt" height="400.000000pt" viewBox="0 0 400.000000 400.000000"
 preserveAspectRatio="xMidYMid meet">
<metadata>
Created by potrace 1.11, written by Peter Selinger 2001-2013
</metadata>
<g transform="translate(0.000000,400.000000) scale(0.100000,-0.100000)"
fill="#000000" stroke="none">
<path d="M1770 3676 c-44 -24 -117 -56 -128 -56 -6 0 -19 -13 -29 -30 -20 -35
-29 -37 -38 -10 -7 22 -25 27 -25 8 0 -7 -5 -30 -11 -50 -7 -29 -15 -38 -31
-38 -29 0 -47 -29 -41 -66 3 -20 -2 -45 -16 -72 -12 -23 -21 -56 -21 -74 0
-49 25 -133 50 -168 12 -17 26 -56 30 -88 7 -50 6 -59 -11 -71 -24 -17 -25
-64 -3 -132 22 -66 55 -92 106 -84 36 6 39 5 52 -27 7 -18 21 -89 30 -156 l17
-124 -37 -74 c-20 -40 -41 -77 -47 -82 -7 -4 -41 -21 -77 -36 -38 -15 -104
-58 -158 -101 -89 -71 -96 -75 -145 -75 -68 0 -120 -15 -155 -45 -23 -19 -30
-36 -35 -76 -4 -28 -13 -62 -22 -75 -17 -26 -60 -150 -81 -234 -7 -30 -13 -98
-14 -150 0 -52 -5 -111 -10 -130 -6 -19 -13 -170 -17 -335 -10 -463 -9 -506 7
-543 13 -29 13 -40 -2 -97 -17 -63 -17 -67 2 -127 11 -35 20 -87 20 -117 0
-41 6 -63 28 -97 l27 -43 1083 -1 1082 0 0 44 c0 40 2 43 23 39 14 -3 29 3 39
14 16 17 18 59 20 403 2 274 -1 399 -9 435 -7 28 -14 122 -17 210 -3 121 -8
167 -20 190 -9 17 -16 41 -16 55 0 14 -7 61 -15 105 -13 65 -13 89 -4 129 16
65 7 162 -20 214 -36 71 -71 177 -71 218 0 22 -6 50 -13 63 -12 25 -9 24 -274
84 -40 9 -119 37 -177 61 -58 25 -130 52 -161 62 -47 13 -62 23 -88 60 -17 24
-33 44 -36 44 -3 0 -4 -25 -3 -56 3 -42 -7 -96 -38 -218 -24 -88 -44 -162 -45
-164 -8 -9 -125 94 -125 109 0 27 -11 50 -21 43 -15 -9 14 49 48 96 56 76 93
133 89 137 -6 6 -89 -53 -120 -86 -17 -17 -33 -31 -37 -31 -7 0 4 71 15 88 10
17 49 15 43 -2 -5 -11 -1 -11 24 1 16 8 29 19 29 24 0 6 -8 5 -20 -1 -11 -6
-20 -7 -20 -3 0 5 10 13 23 18 14 7 23 20 25 40 2 17 8 36 14 43 7 8 7 12 -1
12 -6 0 -11 -4 -11 -10 0 -5 -6 -10 -14 -10 -8 0 -16 -7 -20 -15 -8 -21 -49
-36 -58 -21 -4 6 -8 24 -8 39 0 22 6 30 29 38 17 6 30 18 30 27 1 38 7 59 29
93 29 48 28 54 -13 56 -24 1 -35 -3 -35 -12 0 -19 -38 -29 -55 -15 -17 14 -21
45 -5 35 6 -3 10 0 10 7 0 7 3 23 6 36 5 17 2 22 -12 22 -14 0 -16 3 -6 9 17
10 -2 27 -36 33 -12 1 -23 8 -23 13 0 20 37 15 84 -9 l47 -25 0 32 c0 46 -13
62 -37 48 -14 -7 -31 -7 -56 1 -41 13 -52 34 -12 24 l24 -6 -17 30 c-14 25
-15 33 -4 51 7 11 11 24 8 27 -3 3 -6 0 -6 -7 0 -8 -5 -7 -16 3 -8 9 -21 17
-27 17 -7 1 -19 2 -27 3 -11 1 -16 16 -18 61 -2 32 -7 64 -11 70 -5 5 -11 23
-15 38 -6 24 -4 28 11 25 11 -2 18 -13 19 -28 0 -14 1 -30 2 -37 2 -13 108
-68 132 -68 19 -1 79 102 73 125 -3 10 2 20 11 23 9 4 16 15 16 25 0 25 -58
82 -90 89 -24 4 -39 33 -18 33 4 0 8 9 8 20 0 11 4 20 9 20 5 0 16 3 24 6 11
4 23 -9 40 -43 13 -26 32 -63 42 -81 9 -19 24 -78 33 -133 9 -62 18 -95 23
-87 5 7 9 21 9 31 0 10 8 17 18 17 17 0 18 6 11 63 -4 34 -6 91 -3 127 6 97
-39 222 -99 275 -18 17 -36 35 -38 40 -9 22 -71 56 -116 64 -95 18 -236 21
-263 7z m277 -341 c0 -8 -4 -12 -9 -9 -4 3 -8 9 -8 15 0 5 4 9 8 9 5 0 9 -7 9
-15z m78 -155 c3 -5 -1 -10 -9 -10 -8 0 -18 5 -21 10 -3 6 1 10 9 10 8 0 18
-4 21 -10z m-5 -60 c0 -5 -4 -10 -10 -10 -5 0 -10 5 -10 10 0 6 5 10 10 10 6
0 10 -4 10 -10z m677 -2342 c-2 -13 -4 -3 -4 22 0 25 2 35 4 23 2 -13 2 -33 0
-45z m0 -80 c-3 -7 -5 -2 -5 12 0 14 2 19 5 13 2 -7 2 -19 0 -25z m26 -238 c3
-11 1 -18 -4 -14 -5 3 -9 12 -9 20 0 20 7 17 13 -6z"/>
<path d="M2329 3065 c8 -24 19 -41 23 -37 12 12 -11 82 -26 82 -11 0 -10 -9 3
-45z"/>
<path d="M2270 3011 c0 -10 7 -24 15 -31 8 -7 15 -19 15 -26 0 -17 12 -18 28
-2 17 17 15 42 -6 61 -25 23 -52 22 -52 -2z"/>
<path d="M2054 2996 c-6 -16 23 -86 36 -86 4 0 10 -10 13 -22 4 -12 9 -20 12
-16 8 8 -36 138 -47 138 -5 0 -11 -6 -14 -14z"/>
<path d="M2258 2466 c-3 -16 -1 -23 7 -19 7 2 11 13 8 24 -7 25 -10 24 -15 -5z"/>
</g>
</svg>
